<svg viewBox="0 0 134 126" xmlns="http://www.w3.org/2000/svg">
<path d="M9.05764 70.1245C7.12033 72.0732 3.95794 72.0846 2.00923 70.1416C0.0605278 68.2043 0.0491325 65.0419 1.99214 63.0932L63.4676 1.48726C65.4049 -0.461432 68.5673 -0.472828 70.516 1.47017L84.2709 15.2591V5.00858C84.2709 2.24508 86.5102 0.00579834 89.2737 0.00579834H111.547C114.311 0.00579834 116.55 2.24508 116.55 5.00858V47.6063L132.008 63.0989C133.946 65.0476 133.94 68.21 131.991 70.1473C131.017 71.1159 129.746 71.5945 128.476 71.6002L86.7609 71.6173C84.3677 71.6173 82.043 72.1757 79.9746 73.2071C77.8891 74.2441 76.0373 75.7597 74.6014 77.6571C73.5416 79.0588 71.8778 79.7483 70.2482 79.6286L49.2967 79.5944V79.6172C47.7925 79.6172 46.4363 80.2269 45.4506 81.207C44.4705 82.187 43.8608 83.5488 43.8608 85.0531C43.8608 86.5345 44.4421 87.8735 45.3822 88.8479L45.3879 88.8536L45.4278 88.8934L45.4335 88.8992L45.4506 88.9162C46.4306 89.8849 47.7925 90.4889 49.2967 90.4889V90.5117L70.6185 90.5401C73.3706 90.5401 75.5986 92.768 75.5986 95.5201C75.5986 98.2722 73.3706 100.5 70.6185 100.5L49.2967 100.472V100.494C45.0745 100.494 41.2398 98.785 38.4478 96.0159L38.4022 95.9703L38.3851 95.9532L38.3623 95.9304L38.2598 95.8221L25.804 83.2582C25.3367 82.7967 24.8011 82.4263 24.2313 82.1642L24.0376 82.0901C23.4051 81.828 22.6986 81.6856 21.9578 81.6856C20.4536 81.6856 19.0975 82.2952 18.1117 83.2753C17.1317 84.2553 16.522 85.6171 16.522 87.1214C16.522 87.9248 16.6872 88.6883 16.9892 89.3607C17.2741 89.9931 17.6958 90.58 18.2371 91.0928L18.5562 91.3834L42.915 115.742H91.0913L124.949 81.8907C126.897 79.942 130.065 79.942 132.02 81.8907C133.969 83.8394 133.969 87.0074 132.02 88.9618L96.6981 124.278C95.7238 125.252 94.4417 125.742 93.1654 125.742L40.8523 125.748C39.4221 125.748 38.1287 125.144 37.217 124.181L11.5306 98.4945C9.98641 97.07 8.74994 95.3378 7.88955 93.429C7.00066 91.4461 6.52204 89.298 6.52204 87.1214C6.52204 82.865 8.24852 79.0019 11.0462 76.2099C13.8382 73.4179 17.7015 71.6857 21.9578 71.6857C23.9863 71.6857 25.9977 72.096 27.8666 72.8709L28.1857 73.019C29.9179 73.7825 31.5019 74.8595 32.8524 76.2099L35.2626 78.6372C36.0318 76.9563 37.0974 75.4349 38.3908 74.1415C41.1828 71.3495 45.046 69.6174 49.3024 69.6174V69.6402L68.2938 69.6686C70.3792 67.4237 72.835 65.6003 75.5245 64.2613C78.9774 62.5405 82.8179 61.6118 86.7666 61.6118H116.447L108.294 53.4409C107.228 52.5236 106.55 51.1675 106.55 49.6461V10.0057H94.2765V27.3274C94.2594 28.6094 93.7694 29.8914 92.7893 30.8601C90.8406 32.7974 87.6783 32.7917 85.7409 30.843L67.0003 12.0626L9.05764 70.1245Z"/>
</svg>
